<svg version="1.1" id="Layer_1" xmlns="http://www.w3.org/2000/svg" xmlns:xlink="http://www.w3.org/1999/xlink" x="0px" y="0px"
	 viewBox="0 0 1000 400" style="enable-background:new 0 0 1000 400;" xml:space="preserve">
<style type="text/css">
	.blue{fill:rgb(5, 192, 212);}
	.red{fill:rgb(140, 55, 48);}
</style>
<g transform="translate(80,100)">
	<circle id="orbit" cx="100" cy="100" r="80" stroke="rgb(78, 90, 97)" fill="none" stroke-width="10" />
	<circle class="blue" id="nucleus" cx="100" cy="100" r="35" />
	<circle class="red" id="electron" cx="100" cy="20" r="20" />
</g>
<g id="atomphys" transform="translate(-20,0)">
	<g id="atom" class="blue">
		<path d="M350.31,167.35h17.06v68h-17.06v-7.19c-3.33,3.17-6.67,5.45-10.02,6.84c-3.35,1.4-6.98,2.09-10.89,2.09
			c-8.78,0-16.38-3.41-22.79-10.22S297,211.6,297,201.48c0-10.5,3.1-19.1,9.3-25.81c6.2-6.71,13.73-10.06,22.6-10.06
			c4.08,0,7.91,0.77,11.49,2.31c3.58,1.54,6.89,3.85,9.93,6.94V167.35z M332.38,181.35c-5.27,0-9.66,1.87-13.14,5.59
			c-3.49,3.73-5.23,8.51-5.23,14.34c0,5.88,1.77,10.71,5.33,14.5c3.55,3.79,7.92,5.69,13.11,5.69c5.36,0,9.8-1.86,13.33-5.59
			c3.53-3.73,5.29-8.61,5.29-14.66c0-5.92-1.77-10.71-5.29-14.38C342.24,183.18,337.77,181.35,332.38,181.35z"/>
		<path d="M386.69,142.29h17.06v25.06h10.13v14.69h-10.13v53.31h-17.06v-53.31h-8.75v-14.69h8.75V142.29z"/>
		<path d="M454.94,165.6c6.42,0,12.45,1.6,18.09,4.81c5.65,3.21,10.05,7.56,13.22,13.06c3.17,5.5,4.75,11.44,4.75,17.81
			c0,6.42-1.59,12.42-4.78,18c-3.19,5.58-7.53,9.95-13.03,13.09s-11.56,4.72-18.19,4.72c-9.75,0-18.07-3.47-24.97-10.41
			c-6.9-6.94-10.34-15.36-10.34-25.28c0-10.63,3.9-19.48,11.69-26.56C438.21,168.68,446.06,165.6,454.94,165.6z M455.22,181.66
			c-5.3,0-9.71,1.84-13.24,5.53c-3.53,3.69-5.29,8.41-5.29,14.16c0,5.92,1.74,10.71,5.23,14.38c3.48,3.67,7.9,5.5,13.24,5.5
			c5.34,0,9.79-1.85,13.33-5.56c3.55-3.71,5.32-8.48,5.32-14.31c0-5.83-1.74-10.57-5.23-14.22
			C465.1,183.49,460.64,181.66,455.22,181.66z"/>
		<path d="M504.81,167.35h17.06v7.81c2.92-3.21,6.16-5.6,9.73-7.19c3.56-1.58,7.45-2.38,11.67-2.38
			c4.25,0,8.09,1.04,11.51,3.13c3.42,2.08,6.17,5.13,8.26,9.13c2.71-4,6.04-7.04,9.98-9.13c3.94-2.08,8.25-3.13,12.92-3.13
			c4.84,0,9.09,1.13,12.76,3.38c3.67,2.25,6.31,5.19,7.91,8.81s2.41,9.52,2.41,17.69v39.88h-17.19v-34.5
			c0-7.71-0.96-12.93-2.88-15.66c-1.92-2.73-4.79-4.09-8.63-4.09c-2.92,0-5.53,0.83-7.84,2.5c-2.31,1.67-4.03,3.97-5.16,6.91
			s-1.69,7.66-1.69,14.16v30.69h-17.19v-32.94c0-6.08-0.45-10.49-1.35-13.22c-0.9-2.73-2.25-4.76-4.04-6.09c-1.8-1.33-3.97-2-6.52-2
			c-2.84,0-5.42,0.84-7.74,2.53s-4.05,4.05-5.2,7.09c-1.15,3.04-1.72,7.83-1.72,14.38v30.25h-17.06V167.35z"/>
	</g>
	<g id="phys" class="red" >
		<path d="M642.19,167.35v7.5c3.08-3.08,6.42-5.4,10-6.94c3.58-1.54,7.42-2.31,11.5-2.31c8.88,0,16.42,3.35,22.63,10.06
			c6.21,6.71,9.31,15.31,9.31,25.81c0,10.13-3.21,18.59-9.63,25.41c-6.42,6.81-14.02,10.22-22.81,10.22c-3.92,0-7.56-0.7-10.94-2.09
			s-6.73-3.68-10.06-6.84v32.06h-16.94v-92.88H642.19z M660.13,181.35c-5.38,0-9.83,1.83-13.38,5.5c-3.54,3.67-5.31,8.46-5.31,14.38
			c0,6.04,1.77,10.93,5.31,14.66c3.54,3.73,8,5.59,13.38,5.59c5.21,0,9.59-1.9,13.16-5.69c3.56-3.79,5.34-8.63,5.34-14.5
			c0-5.83-1.75-10.61-5.25-14.34C669.88,183.22,665.46,181.35,660.13,181.35z"/>
		<path d="M709.81,141.1h16.94v33.13c3.33-2.88,6.69-5.03,10.06-6.47s6.79-2.16,10.25-2.16c6.75,0,12.44,2.33,17.06,7
			c3.96,4.04,5.94,9.98,5.94,17.81v44.94h-16.81v-29.81c0-7.88-0.38-13.21-1.13-16c-0.75-2.79-2.03-4.88-3.84-6.25
			s-4.05-2.06-6.72-2.06c-3.46,0-6.43,1.15-8.91,3.44c-2.48,2.29-4.2,5.42-5.16,9.38c-0.5,2.04-0.75,6.71-0.75,14v27.31h-16.94V141.1
			z"/>
		<path d="M779.02,167.35h17.44l17.66,42.67l19.49-42.67h17.49l-42.59,92.88h-17.62l13.98-29.95L779.02,167.35z"/>
		<path d="M902.44,176.85l-10.56,10.56c-4.29-4.25-8.19-6.38-11.69-6.38c-1.92,0-3.42,0.41-4.5,1.22
			c-1.08,0.81-1.63,1.82-1.63,3.03c0,0.92,0.34,1.76,1.03,2.53c0.69,0.77,2.38,1.82,5.09,3.16l6.25,3.13
			c6.58,3.25,11.1,6.56,13.56,9.94c2.46,3.38,3.69,7.33,3.69,11.88c0,6.04-2.22,11.08-6.66,15.13c-4.44,4.04-10.39,6.06-17.84,6.06
			c-9.92,0-17.83-3.88-23.75-11.63l10.5-11.44c2,2.33,4.34,4.22,7.03,5.66s5.07,2.16,7.16,2.16c2.25,0,4.06-0.54,5.44-1.63
			c1.38-1.08,2.06-2.33,2.06-3.75c0-2.63-2.48-5.19-7.44-7.69l-5.75-2.88c-11-5.54-16.5-12.48-16.5-20.81
			c0-5.38,2.07-9.97,6.22-13.78c4.15-3.81,9.45-5.72,15.91-5.72c4.42,0,8.57,0.97,12.47,2.91
			C896.43,170.44,899.73,173.23,902.44,176.85z"/>
	</g>
</g>
</svg>
